<svg width="35" height="35" viewBox="0 0 35 35" fill="none" xmlns="http://www.w3.org/2000/svg">
<path d="M26.5264 25.8853H10.9952C9.55142 25.8853 8.16601 25.2728 7.18892 24.2082C6.21184 23.1436 5.71602 21.7144 5.83268 20.2707L7.0431 5.74567C7.08685 5.29359 6.92642 4.8561 6.62017 4.52068C6.31392 4.18526 5.89101 4.01025 5.43893 4.01025H2.91602C2.3181 4.01025 1.82227 3.51442 1.82227 2.9165C1.82227 2.31859 2.3181 1.82275 2.91602 1.82275H5.45352C6.51811 1.82275 7.52434 2.27483 8.23892 3.04775C8.63267 3.48525 8.92434 3.99568 9.08476 4.56443H27.2994C28.7723 4.56443 30.1285 5.14775 31.1202 6.19775C32.0973 7.26234 32.5931 8.64776 32.4764 10.1207L31.6889 21.0582C31.5285 23.7269 29.1952 25.8853 26.5264 25.8853ZM9.15768 6.73733L8.02018 20.4457C7.94727 21.2915 8.22435 22.0936 8.7931 22.7207C9.36185 23.3477 10.1493 23.6832 10.9952 23.6832H26.5264C28.0431 23.6832 29.4139 22.3998 29.5306 20.8832L30.3181 9.94568C30.3764 9.08526 30.0993 8.2686 29.5306 7.67068C28.9618 7.05819 28.1743 6.72273 27.3139 6.72273H9.15768V6.73733Z" fill="#002E69"/>
<path d="M23.6979 33.1771C22.0938 33.1771 20.7812 31.8646 20.7812 30.2604C20.7812 28.6562 22.0938 27.3438 23.6979 27.3438C25.3021 27.3438 26.6146 28.6562 26.6146 30.2604C26.6146 31.8646 25.3021 33.1771 23.6979 33.1771ZM23.6979 29.5312C23.2896 29.5312 22.9688 29.8521 22.9688 30.2604C22.9688 30.6687 23.2896 30.9896 23.6979 30.9896C24.1063 30.9896 24.4271 30.6687 24.4271 30.2604C24.4271 29.8521 24.1063 29.5312 23.6979 29.5312Z" fill="#002E69"/>
<path d="M12.0319 33.1771C10.4277 33.1771 9.11523 31.8646 9.11523 30.2604C9.11523 28.6562 10.4277 27.3438 12.0319 27.3438C13.6361 27.3438 14.9486 28.6562 14.9486 30.2604C14.9486 31.8646 13.6361 33.1771 12.0319 33.1771ZM12.0319 29.5312C11.6236 29.5312 11.3027 29.8521 11.3027 30.2604C11.3027 30.6687 11.6236 30.9896 12.0319 30.9896C12.4402 30.9896 12.7611 30.6687 12.7611 30.2604C12.7611 29.8521 12.4402 29.5312 12.0319 29.5312Z" fill="#002E69"/>
<path d="M30.625 12.7603H13.125C12.5271 12.7603 12.0312 12.2644 12.0312 11.6665C12.0312 11.0686 12.5271 10.5728 13.125 10.5728H30.625C31.2229 10.5728 31.7188 11.0686 31.7188 11.6665C31.7188 12.2644 31.2229 12.7603 30.625 12.7603Z" fill="#002E69"/>
</svg>
